REM DIRINDEX 1\3,1\2\4,1\2\5,1\2\6
REM DIRNAME cjc137,folder01,folder02,folder03,folder04,folder05
TITLE ""
FILE "072.mp3" MP3
  TRACK 01 AUDIO
    TITLE "4:cjc137_2948"
    INDEX 01 00:00:00
  TRACK 02 AUDIO
    TITLE "0:"
    INDEX 01 00:01:21
  TRACK 03 AUDIO
    TITLE "6:cjc137_2949"
    INDEX 01 00:01:32
  TRACK 04 AUDIO
    TITLE "0:"
    INDEX 01 00:02:51
  TRACK 05 AUDIO
    TITLE "5:cjc137_2950"
    INDEX 01 00:02:55
  TRACK 06 AUDIO
    TITLE "0:"
    INDEX 01 00:04:01
  TRACK 07 AUDIO
    TITLE "4:cjc137_2951"
    INDEX 01 00:05:10
  TRACK 08 AUDIO
    TITLE "0:"
    INDEX 01 00:06:24
  TRACK 09 AUDIO
    TITLE "6:cjc137_2952"
    INDEX 01 00:06:31
  TRACK 10 AUDIO
    TITLE "0:"
    INDEX 01 00:07:62
  TRACK 11 AUDIO
    TITLE "5:cjc137_2953"
    INDEX 01 00:07:66
  TRACK 12 AUDIO
    TITLE "0:"
    INDEX 01 00:09:06
  TRACK 13 AUDIO
    TITLE "4:cjc137_2954"
    INDEX 01 00:10:18
  TRACK 14 AUDIO
    TITLE "0:"
    INDEX 01 00:11:17
  TRACK 15 AUDIO
    TITLE "6:cjc137_2955"
    INDEX 01 00:11:25
  TRACK 16 AUDIO
    TITLE "0:"
    INDEX 01 00:12:09
  TRACK 17 AUDIO
    TITLE "5:cjc137_2956"
    INDEX 01 00:12:14
  TRACK 18 AUDIO
    TITLE "0:"
    INDEX 01 00:13:16
  TRACK 19 AUDIO
    TITLE "4:cjc137_2957"
    INDEX 01 00:14:25
  TRACK 20 AUDIO
    TITLE "0:"
    INDEX 01 00:15:58
  TRACK 21 AUDIO
    TITLE "6:cjc137_2958"
    INDEX 01 00:15:62
  TRACK 22 AUDIO
    TITLE "0:"
    INDEX 01 00:17:04
  TRACK 23 AUDIO
    TITLE "5:cjc137_2959"
    INDEX 01 00:17:08
  TRACK 24 AUDIO
    TITLE "0:"
    INDEX 01 00:18:39
  TRACK 25 AUDIO
    TITLE "4:cjc137_2960"
    INDEX 01 00:19:46
  TRACK 26 AUDIO
    TITLE "0:"
    INDEX 01 00:20:57
  TRACK 27 AUDIO
    TITLE "6:cjc137_2961"
    INDEX 01 00:20:63
  TRACK 28 AUDIO
    TITLE "0:"
    INDEX 01 00:21:74
  TRACK 29 AUDIO
    TITLE "5:cjc137_2962"
    INDEX 01 00:22:03
  TRACK 30 AUDIO
    TITLE "0:"
    INDEX 01 00:23:14
  TRACK 31 AUDIO
    TITLE "4:cjc137_2963"
    INDEX 01 00:24:22
  TRACK 32 AUDIO
    TITLE "0:"
    INDEX 01 00:25:39
  TRACK 33 AUDIO
    TITLE "6:cjc137_2964"
    INDEX 01 00:25:46
  TRACK 34 AUDIO
    TITLE "0:"
    INDEX 01 00:26:67
  TRACK 35 AUDIO
    TITLE "5:cjc137_2965"
    INDEX 01 00:26:73
  TRACK 36 AUDIO
    TITLE "0:"
    INDEX 01 00:28:15
  TRACK 37 AUDIO
    TITLE "4:cjc137_2966"
    INDEX 01 00:29:27
  TRACK 38 AUDIO
    TITLE "0:"
    INDEX 01 00:30:32
  TRACK 39 AUDIO
    TITLE "6:cjc137_2967"
    INDEX 01 00:30:36
  TRACK 40 AUDIO
    TITLE "0:"
    INDEX 01 00:31:35
  TRACK 41 AUDIO
    TITLE "5:cjc137_2968"
    INDEX 01 00:31:41
  TRACK 42 AUDIO
    TITLE "0:"
    INDEX 01 00:32:45
  TRACK 43 AUDIO
    TITLE "4:cjc137_2969"
    INDEX 01 00:33:52
  TRACK 44 AUDIO
    TITLE "0:"
    INDEX 01 00:34:57
  TRACK 45 AUDIO
    TITLE "6:cjc137_2970"
    INDEX 01 00:34:61
  TRACK 46 AUDIO
    TITLE "0:"
    INDEX 01 00:36:01
  TRACK 47 AUDIO
    TITLE "5:cjc137_2971"
    INDEX 01 00:36:11
  TRACK 48 AUDIO
    TITLE "0:"
    INDEX 01 00:37:14
  TRACK 49 AUDIO
    TITLE "4:cjc137_2972"
    INDEX 01 00:38:22
  TRACK 50 AUDIO
    TITLE "0:"
    INDEX 01 00:39:64
  TRACK 51 AUDIO
    TITLE "6:cjc137_2973"
    INDEX 01 00:39:68
  TRACK 52 AUDIO
    TITLE "0:"
    INDEX 01 00:41:22
  TRACK 53 AUDIO
    TITLE "5:cjc137_2974"
    INDEX 01 00:41:26
  TRACK 54 AUDIO
    TITLE "0:"
    INDEX 01 00:42:68
  TRACK 55 AUDIO
    TITLE "4:cjc137_2975"
    INDEX 01 00:44:01
  TRACK 56 AUDIO
    TITLE "0:"
    INDEX 01 00:45:08
  TRACK 57 AUDIO
    TITLE "6:cjc137_2976"
    INDEX 01 00:45:16
  TRACK 58 AUDIO
    TITLE "0:"
    INDEX 01 00:46:02
  TRACK 59 AUDIO
    TITLE "5:cjc137_2977"
    INDEX 01 00:46:11
  TRACK 60 AUDIO
    TITLE "0:"
    INDEX 01 00:47:15
  TRACK 61 AUDIO
    TITLE "4:cjc137_2978"
    INDEX 01 00:48:28
  TRACK 62 AUDIO
    TITLE "0:"
    INDEX 01 00:49:27
  TRACK 63 AUDIO
    TITLE "6:cjc137_2979"
    INDEX 01 00:49:31
  TRACK 64 AUDIO
    TITLE "0:"
    INDEX 01 00:50:23
  TRACK 65 AUDIO
    TITLE "5:cjc137_2980"
    INDEX 01 00:50:29
  TRACK 66 AUDIO
    TITLE "0:"
    INDEX 01 00:51:28
  TRACK 67 AUDIO
    TITLE "4:cjc137_2981"
    INDEX 01 00:52:36
  TRACK 68 AUDIO
    TITLE "0:"
    INDEX 01 00:53:43
  TRACK 69 AUDIO
    TITLE "6:cjc137_2982"
    INDEX 01 00:53:47
  TRACK 70 AUDIO
    TITLE "0:"
    INDEX 01 00:54:48
  TRACK 71 AUDIO
    TITLE "5:cjc137_2983"
    INDEX 01 00:54:52
  TRACK 72 AUDIO
    TITLE "0:"
    INDEX 01 00:55:59
  TRACK 73 AUDIO
    TITLE "4:cjc137_2984"
    INDEX 01 00:56:67
  TRACK 74 AUDIO
    TITLE "0:"
    INDEX 01 00:57:74
  TRACK 75 AUDIO
    TITLE "6:cjc137_2985"
    INDEX 01 00:58:05
  TRACK 76 AUDIO
    TITLE "0:"
    INDEX 01 00:59:18
  TRACK 77 AUDIO
    TITLE "5:cjc137_2986"
    INDEX 01 00:59:24
  TRACK 78 AUDIO
    TITLE "0:"
    INDEX 01 01:00:29
  TRACK 79 AUDIO
    TITLE "4:cjc137_2987"
    INDEX 01 01:01:38
  TRACK 80 AUDIO
    TITLE "0:"
    INDEX 01 01:02:44
  TRACK 81 AUDIO
    TITLE "6:cjc137_2988"
    INDEX 01 01:02:54
  TRACK 82 AUDIO
    TITLE "0:"
    INDEX 01 01:03:55
  TRACK 83 AUDIO
    TITLE "5:cjc137_2989"
    INDEX 01 01:03:61
  TRACK 84 AUDIO
    TITLE "0:"
    INDEX 01 01:04:68
